<svg xmlns="http://www.w3.org/2000/svg" width="280" height="128" fill="none"><g clip-path="url(#clip0)"><path fill="#fff" d="M0 0h280v128H0z"/><path fill="url(#paint0_linear)" d="M45.58 44.72V99H33.62V44.72H14.3v-9.94h50.6v9.94H45.58zM103.96 99c-2.88 0-5.12-.7-6.71-2.12-1.54-1.47-2.46-3.5-2.76-6.07h-.46a12.03 12.03 0 0 1-5.06 6.9c-2.52 1.6-5.61 2.4-9.3 2.4-4.78 0-8.58-1.26-11.4-3.78-2.82-2.51-4.23-6-4.23-10.49 0-9.56 7.02-14.35 21.06-14.35h8.38v-3.13c0-3-.74-5.27-2.21-6.8-1.47-1.54-3.87-2.3-7.18-2.3-3 0-5.43.58-7.27 1.74a16.4 16.4 0 0 0-4.69 4.51l-6.71-5.7c1.47-2.64 3.83-4.85 7.08-6.63 3.31-1.84 7.57-2.76 12.79-2.76 6.25 0 11.13 1.48 14.63 4.42 3.55 2.88 5.33 7.2 5.33 12.97v22.36h5.61V99h-6.9zm-20.33-7c2.82 0 5.15-.64 7-1.92a6.33 6.33 0 0 0 2.85-5.43V78.3h-8.1c-6.44 0-9.66 2.02-9.66 6.07v1.84c0 1.9.7 3.34 2.12 4.33 1.4.98 3.34 1.47 5.8 1.47zm62.71-40.47h11.96l-22.72 55.93c-1.3 3.26-3 5.7-5.16 7.36-2.14 1.72-5.18 2.58-9.1 2.58h-8.65v-9.3h11.31l3.6-9.56-19.14-47.01h12.5l7.28 19.87 5.06 15.09h.64l5.06-15.09 7.36-19.87z" filter="url(#filter0_d)"/><path fill="url(#paint1_linear)" d="M187.11 100.1c-8.59 0-14.93-2.9-19.04-8.74-4.05-5.82-6.07-13.98-6.07-24.47 0-10.49 2.02-18.64 6.07-24.47 4.1-5.83 10.46-8.74 19.04-8.74 8.59 0 14.9 2.91 18.95 8.74 4.11 5.83 6.17 13.98 6.17 24.47 0 10.49-2.06 18.65-6.17 24.47-4.04 5.83-10.36 8.74-18.95 8.74zm0-11.13c3.93 0 6.63-1.44 8.1-4.32 1.53-2.95 2.3-7.02 2.3-12.24V61.28c0-5.15-.77-9.17-2.3-12.05-1.47-2.95-4.17-4.42-8.1-4.42-3.92 0-6.65 1.47-8.19 4.42-1.47 2.88-2.2 6.9-2.2 12.05V72.5c0 5.16.73 9.2 2.2 12.15 1.54 2.88 4.27 4.32 8.2 4.32zm53.23 11.13c-5.4 0-10.09-.89-14.07-2.66a25.3 25.3 0 0 1-9.66-7.27l8-8.83a22.86 22.86 0 0 0 7.64 5.7 21.28 21.28 0 0 0 8.55 1.84c3.32 0 5.83-.74 7.55-2.2 1.72-1.48 2.57-3.6 2.57-6.36 0-2.27-.67-3.98-2.02-5.15-1.29-1.16-3.5-2-6.62-2.48l-6.72-1.1c-5.77-.99-9.94-3.1-12.51-6.35-2.58-3.32-3.87-7.33-3.87-12.06 0-6.2 2.03-10.97 6.08-14.35 4.04-3.43 9.72-5.15 17.02-5.15 4.96 0 9.29.77 12.97 2.3a23.4 23.4 0 0 1 8.92 6.26l-7.82 8.74a18 18 0 0 0-6.07-4.42 18.26 18.26 0 0 0-7.91-1.66c-6.2 0-9.3 2.55-9.3 7.64 0 2.2.68 3.86 2.03 4.97 1.41 1.1 3.68 1.93 6.8 2.48l6.72 1.2c5.22.92 9.24 2.88 12.06 5.89 2.82 3 4.23 7.05 4.23 12.14 0 3-.52 5.8-1.57 8.37a18.45 18.45 0 0 1-4.69 6.63 22.43 22.43 0 0 1-7.73 4.32 32.3 32.3 0 0 1-10.58 1.56z" filter="url(#filter1_d)"/></g><defs><filter id="filter0_d" width="160" height="98.62" x="8.3" y="30.78" color-interpolation-filters="sRGB" filterUnits="userSpaceOnUse"><feFlood flood-opacity="0" result="BackgroundImageFix"/><feColorMatrix in="SourceAlpha" values="0 0 0 0 0 0 0 0 0 0 0 0 0 0 0 0 0 0 127 0"/><feOffset dx="2" dy="4"/><feGaussianBlur stdDeviation="4"/><feColorMatrix values="0 0 0 0 0 0 0 0 0 0 0 0 0 0 0 0 0 0 0.25 0"/><feBlend in2="BackgroundImageFix" result="effect1_dropShadow"/><feBlend in="SourceGraphic" in2="effect1_dropShadow" result="shape"/></filter><filter id="filter1_d" width="118.91" height="82.42" x="156" y="29.68" color-interpolation-filters="sRGB" filterUnits="userSpaceOnUse"><feFlood flood-opacity="0" result="BackgroundImageFix"/><feColorMatrix in="SourceAlpha" values="0 0 0 0 0 0 0 0 0 0 0 0 0 0 0 0 0 0 127 0"/><feOffset dx="2" dy="4"/><feGaussianBlur stdDeviation="4"/><feColorMatrix values="0 0 0 0 0 0 0 0 0 0 0 0 0 0 0 0 0 0 0.25 0"/><feBlend in2="BackgroundImageFix" result="effect1_dropShadow"/><feBlend in="SourceGraphic" in2="effect1_dropShadow" result="shape"/></filter><linearGradient id="paint0_linear" x1="81.5" x2="81.5" y2="128" gradientUnits="userSpaceOnUse"><stop offset=".34" stop-color="#297FFF"/><stop offset=".78" stop-color="#0051CB"/></linearGradient><linearGradient id="paint1_linear" x1="268" x2="268" y1="128" gradientUnits="userSpaceOnUse"><stop offset=".2" stop-color="#002761"/><stop offset=".7" stop-color="#0055D4"/></linearGradient><clipPath id="clip0"><path fill="#fff" d="M0 0h280v128H0z"/></clipPath></defs></svg>